<svg xmlns="http://www.w3.org/2000/svg" width="43.32" height="35" viewBox="0 0 43.32 35"><rect class="svg__rect" x="0" y="0" width="43.32" height="35" fill="#3F00A9"/><rect class="svg__rect" x="43.32" y="0" width="0" height="35" fill="#389AD5"/><path class="svg__text" d="M13.95 18.19L13.95 18.19L13.95 17.39Q13.95 16.19 14.38 15.27Q14.80 14.35 15.60 13.85Q16.40 13.35 17.45 13.35L17.45 13.35Q18.86 13.35 19.73 14.12Q20.59 14.89 20.73 16.29L20.73 16.29L19.25 16.29Q19.14 15.37 18.71 14.96Q18.28 14.55 17.45 14.55L17.45 14.55Q16.48 14.55 15.97 15.26Q15.45 15.96 15.44 17.33L15.44 17.33L15.44 18.09Q15.44 19.47 15.93 20.20Q16.43 20.92 17.38 20.92L17.38 20.92Q18.25 20.92 18.69 20.53Q19.13 20.14 19.25 19.22L19.25 19.22L20.73 19.22Q20.60 20.59 19.72 21.35Q18.84 22.12 17.38 22.12L17.38 22.12Q16.36 22.12 15.59 21.63Q14.81 21.15 14.39 20.26Q13.97 19.37 13.95 18.19ZM26.09 19.60L24.73 19.60L24.73 18.67L26.26 18.67L26.60 16.84L25.18 16.84L25.18 15.91L26.78 15.91L27.24 13.47L28.22 13.47L27.76 15.91L29.08 15.91L29.53 13.47L30.51 13.47L30.06 15.91L31.27 15.91L31.27 16.84L29.88 16.84L29.54 18.67L30.83 18.67L30.83 19.60L29.36 19.60L28.92 22L27.94 22L28.39 19.60L27.07 19.60L26.63 22L25.64 22L26.09 19.60ZM27.59 16.84L27.25 18.67L28.56 18.67L28.90 16.84L27.59 16.84Z" fill="#FFFFFF"/><path class="svg__text" d="" fill="#FFFFFF" x="56.32"/></svg>