<svg xmlns="http://www.w3.org/2000/svg" width="64.09" height="35" viewBox="0 0 64.09 35"><rect class="svg__rect" x="0" y="0" width="64.09" height="35" fill="#006AA9"/><rect class="svg__rect" x="64.09" y="0" width="0" height="35" fill="#389AD5"/><path class="svg__text" d="M16.67 22L14.22 22L14.22 13.47L16.74 13.47Q17.87 13.47 18.74 13.97Q19.62 14.48 20.10 15.40Q20.58 16.33 20.58 17.52L20.58 17.52L20.58 17.95Q20.58 19.16 20.10 20.08Q19.61 21.00 18.72 21.50Q17.83 22 16.67 22L16.67 22ZM15.70 14.66L15.70 20.82L16.67 20.82Q17.83 20.82 18.46 20.09Q19.08 19.36 19.09 17.99L19.09 17.99L19.09 17.52Q19.09 16.13 18.49 15.40Q17.89 14.66 16.74 14.66L16.74 14.66L15.70 14.66ZM25.82 22L24.28 22L27.51 13.47L28.84 13.47L32.06 22L30.52 22L29.82 20.01L26.52 20.01L25.82 22ZM28.17 15.28L26.93 18.82L29.40 18.82L28.17 15.28ZM37.50 22L36.02 22L36.02 13.47L39.02 13.47Q40.50 13.47 41.30 14.13Q42.10 14.79 42.10 16.05L42.10 16.05Q42.10 16.90 41.69 17.48Q41.28 18.06 40.54 18.37L40.54 18.37L42.45 21.92L42.45 22L40.87 22L39.15 18.71L37.50 18.71L37.50 22ZM37.50 14.66L37.50 17.52L39.03 17.52Q39.78 17.52 40.20 17.15Q40.62 16.77 40.62 16.11L40.62 16.11Q40.62 15.43 40.23 15.05Q39.84 14.68 39.07 14.66L39.07 14.66L37.50 14.66ZM48.18 14.66L45.54 14.66L45.54 13.47L52.31 13.47L52.31 14.66L49.65 14.66L49.65 22L48.18 22L48.18 14.66Z" fill="#FFFFFF"/><path class="svg__text" d="" fill="#FFFFFF" x="77.09"/></svg>