<svg xmlns="http://www.w3.org/2000/svg" width="96.85000000000001" height="35" viewBox="0 0 96.85000000000001 35"><rect class="svg__rect" x="0" y="0" width="96.85000000000001" height="35" fill="#1A1A1A"/><rect class="svg__rect" x="96.85000000000001" y="0" width="0" height="35" fill="#389AD5"/><path class="svg__text" d="M14.08 19.16L14.08 19.16L14.08 13.47L15.56 13.47L15.56 19.18Q15.56 20.03 15.99 20.48Q16.43 20.93 17.27 20.93L17.27 20.93Q18.98 20.93 18.98 19.13L18.98 19.13L18.98 13.47L20.46 13.47L20.46 19.17Q20.46 20.53 19.59 21.32Q18.72 22.12 17.27 22.12L17.27 22.12Q15.81 22.12 14.94 21.33Q14.08 20.55 14.08 19.16ZM26.51 22L25.03 22L25.03 13.47L26.51 13.47L30.32 19.54L30.32 13.47L31.80 13.47L31.80 22L30.31 22L26.51 15.95L26.51 22ZM38.10 22L36.62 22L36.62 13.47L38.10 13.47L38.10 22ZM44.59 14.66L41.96 14.66L41.96 13.47L48.72 13.47L48.72 14.66L46.06 14.66L46.06 22L44.59 22L44.59 14.66ZM54.52 18.86L51.65 13.47L53.30 13.47L55.26 17.51L57.23 13.47L58.87 13.47L56.01 18.86L56.01 22L54.52 22L54.52 18.86ZM68.35 19.71L68.35 19.71L69.78 19.71Q69.78 20.28 70.15 20.63Q70.53 20.98 71.17 20.98L71.17 20.98Q71.83 20.98 72.21 20.63Q72.59 20.28 72.59 19.61L72.59 19.61Q72.59 18.94 72.20 18.57Q71.80 18.21 71.01 18.21L71.01 18.21L70.17 18.21L70.17 17.08L71.04 17.08Q71.70 17.08 72.08 16.74Q72.47 16.41 72.47 15.78L72.47 15.78Q72.47 15.17 72.15 14.83Q71.83 14.49 71.17 14.49L71.17 14.49Q70.60 14.49 70.23 14.83Q69.86 15.16 69.86 15.69L69.86 15.69L68.43 15.69Q68.43 15.03 68.78 14.49Q69.13 13.96 69.76 13.65Q70.38 13.35 71.15 13.35L71.15 13.35Q72.43 13.35 73.16 13.99Q73.89 14.63 73.89 15.78L73.89 15.78Q73.89 16.35 73.52 16.86Q73.16 17.37 72.58 17.62L72.58 17.62Q73.28 17.86 73.65 18.38Q74.01 18.89 74.01 19.61L74.01 19.61Q74.01 20.76 73.22 21.44Q72.44 22.12 71.15 22.12L71.15 22.12Q69.92 22.12 69.14 21.46Q68.35 20.80 68.35 19.71ZM81.02 22L78.56 22L78.56 13.47L81.08 13.47Q82.22 13.47 83.09 13.97Q83.97 14.48 84.45 15.40Q84.93 16.33 84.93 17.52L84.93 17.52L84.93 17.95Q84.93 19.16 84.44 20.08Q83.96 21.00 83.07 21.50Q82.17 22 81.02 22L81.02 22ZM80.05 14.66L80.05 20.82L81.01 20.82Q82.18 20.82 82.80 20.09Q83.43 19.36 83.44 17.99L83.44 17.99L83.44 17.52Q83.44 16.13 82.84 15.40Q82.23 14.66 81.08 14.66L81.08 14.66L80.05 14.66Z" fill="#FFFFFF"/><path class="svg__text" d="" fill="#FFFFFF" x="109.85000000000001"/></svg>