<svg xmlns="http://www.w3.org/2000/svg" width="151.04000000000002" height="35" viewBox="0 0 151.04000000000002 35"><rect class="svg__rect" x="0" y="0" width="151.04000000000002" height="35" fill="#232323"/><rect class="svg__rect" x="151.04000000000002" y="0" width="0" height="35" fill="#389AD5"/><path class="svg__text" d="M14.08 19.16L14.08 19.16L14.08 13.47L15.56 13.47L15.56 19.18Q15.56 20.03 15.99 20.48Q16.43 20.93 17.27 20.93L17.27 20.93Q18.98 20.93 18.98 19.13L18.98 19.13L18.98 13.47L20.46 13.47L20.46 19.17Q20.46 20.53 19.59 21.32Q18.72 22.12 17.27 22.12L17.27 22.12Q15.81 22.12 14.94 21.33Q14.08 20.55 14.08 19.16ZM26.51 22L25.03 22L25.03 13.47L26.51 13.47L30.32 19.54L30.32 13.47L31.80 13.47L31.80 22L30.31 22L26.51 15.95L26.51 22ZM38.02 22L36.54 22L36.54 13.47L39.54 13.47Q41.01 13.47 41.81 14.13Q42.62 14.79 42.62 16.05L42.62 16.05Q42.62 16.90 42.20 17.48Q41.79 18.06 41.05 18.37L41.05 18.37L42.97 21.92L42.97 22L41.38 22L39.67 18.71L38.02 18.71L38.02 22ZM38.02 14.66L38.02 17.52L39.54 17.52Q40.29 17.52 40.71 17.15Q41.14 16.77 41.14 16.11L41.14 16.11Q41.14 15.43 40.75 15.05Q40.36 14.68 39.58 14.66L39.58 14.66L38.02 14.66ZM52.59 22L47.01 22L47.01 13.47L52.55 13.47L52.55 14.66L48.49 14.66L48.49 17.02L52.00 17.02L52.00 18.19L48.49 18.19L48.49 20.82L52.59 20.82L52.59 22ZM57.56 22L56.02 22L59.25 13.47L60.58 13.47L63.81 22L62.26 22L61.56 20.01L58.26 20.01L57.56 22ZM59.91 15.28L58.67 18.82L61.14 18.82L59.91 15.28ZM73.12 22L67.76 22L67.76 13.47L69.24 13.47L69.24 20.82L73.12 20.82L73.12 22ZM88.80 22L83.22 22L83.22 13.47L88.75 13.47L88.75 14.66L84.70 14.66L84.70 17.02L88.20 17.02L88.20 18.19L84.70 18.19L84.70 20.82L88.80 20.82L88.80 22ZM94.47 22L92.99 22L92.99 13.47L94.47 13.47L98.29 19.54L98.29 13.47L99.76 13.47L99.76 22L98.28 22L94.47 15.95L94.47 22ZM104.25 18.13L104.25 18.13L104.25 17.46Q104.25 15.53 105.18 14.44Q106.10 13.35 107.76 13.35L107.76 13.35Q109.19 13.35 110.02 14.05Q110.86 14.76 111.03 16.08L111.03 16.08L109.58 16.08Q109.33 14.54 107.79 14.54L107.79 14.54Q106.80 14.54 106.28 15.26Q105.76 15.98 105.74 17.37L105.74 17.37L105.74 18.02Q105.74 19.40 106.32 20.17Q106.91 20.93 107.94 20.93L107.94 20.93Q109.08 20.93 109.56 20.42L109.56 20.42L109.56 18.75L107.80 18.75L107.80 17.62L111.04 17.62L111.04 20.89Q110.57 21.50 109.75 21.81Q108.93 22.12 107.89 22.12L107.89 22.12Q106.82 22.12 105.99 21.63Q105.17 21.14 104.72 20.24Q104.27 19.33 104.25 18.13ZM117.22 22L115.74 22L115.74 13.47L117.22 13.47L117.22 22ZM123.51 22L122.03 22L122.03 13.47L123.51 13.47L127.33 19.54L127.33 13.47L128.80 13.47L128.80 22L127.31 22L123.51 15.95L123.51 22ZM139.12 22L133.54 22L133.54 13.47L139.07 13.47L139.07 14.66L135.02 14.66L135.02 17.02L138.52 17.02L138.52 18.19L135.02 18.19L135.02 20.82L139.12 20.82L139.12 22Z" fill="#FFFFFF"/><path class="svg__text" d="" fill="#FFFFFF" x="164.04000000000002"/></svg>